<svg width="760" height="520" viewBox="0 0 760 520" fill="none" xmlns="http://www.w3.org/2000/svg" role="img" aria-labelledby="title desc">
  <title id="title">GPU execution pipeline</title>
  <desc id="desc">A restrained host to device GPU pipeline diagram with kernel blocks, memory lanes, and throughput output.</desc>
  <rect width="760" height="520" fill="#FFFFFF"/>
  <path d="M82 92H678" stroke="#E3E8EF"/>
  <path d="M82 208H678" stroke="#E3E8EF"/>
  <path d="M82 324H678" stroke="#E3E8EF"/>
  <path d="M82 440H678" stroke="#E3E8EF"/>
  <path d="M132 58V462" stroke="#EEF2F6"/>
  <path d="M302 58V462" stroke="#EEF2F6"/>
  <path d="M472 58V462" stroke="#EEF2F6"/>
  <path d="M642 58V462" stroke="#EEF2F6"/>

  <rect x="92" y="108" width="132" height="82" rx="8" fill="#F8FAFC" stroke="#DCE3EC" stroke-width="2"/>
  <rect x="314" y="96" width="132" height="106" rx="8" fill="#F8FAFC" stroke="#214F91" stroke-width="2"/>
  <rect x="536" y="108" width="132" height="82" rx="8" fill="#F8FAFC" stroke="#DCE3EC" stroke-width="2"/>

  <text x="122" y="142" fill="#121417" font-family="ui-monospace, SFMono-Regular, Menlo, Consolas, monospace" font-size="18" font-weight="700">HOST</text>
  <text x="118" y="166" fill="#6B7482" font-family="ui-monospace, SFMono-Regular, Menlo, Consolas, monospace" font-size="13">batch + mask</text>
  <text x="346" y="132" fill="#121417" font-family="ui-monospace, SFMono-Regular, Menlo, Consolas, monospace" font-size="18" font-weight="700">GPU</text>
  <text x="340" y="158" fill="#6B7482" font-family="ui-monospace, SFMono-Regular, Menlo, Consolas, monospace" font-size="13">kernel launch</text>
  <text x="558" y="142" fill="#121417" font-family="ui-monospace, SFMono-Regular, Menlo, Consolas, monospace" font-size="18" font-weight="700">OUTPUT</text>
  <text x="564" y="166" fill="#6B7482" font-family="ui-monospace, SFMono-Regular, Menlo, Consolas, monospace" font-size="13">tokens/sec</text>

  <path d="M224 149H314" stroke="#214F91" stroke-width="3" stroke-linecap="round"/>
  <path d="M300 137L316 149L300 161" stroke="#214F91" stroke-width="3" stroke-linecap="round" stroke-linejoin="round"/>
  <path d="M446 149H536" stroke="#214F91" stroke-width="3" stroke-linecap="round"/>
  <path d="M522 137L538 149L522 161" stroke="#214F91" stroke-width="3" stroke-linecap="round" stroke-linejoin="round"/>

  <rect x="114" y="260" width="532" height="112" rx="8" fill="#F8FAFC" stroke="#DCE3EC" stroke-width="2"/>
  <text x="134" y="294" fill="#121417" font-family="ui-monospace, SFMono-Regular, Menlo, Consolas, monospace" font-size="15" font-weight="700">DEVICE MEMORY</text>
  <text x="134" y="324" fill="#6B7482" font-family="ui-monospace, SFMono-Regular, Menlo, Consolas, monospace" font-size="13">validity masks</text>
  <text x="304" y="324" fill="#6B7482" font-family="ui-monospace, SFMono-Regular, Menlo, Consolas, monospace" font-size="13">row kernels</text>
  <text x="456" y="324" fill="#6B7482" font-family="ui-monospace, SFMono-Regular, Menlo, Consolas, monospace" font-size="13">latency trace</text>
  <path d="M134 342H238" stroke="#214F91" stroke-width="5" stroke-linecap="round"/>
  <path d="M304 342H408" stroke="#121417" stroke-width="5" stroke-linecap="round"/>
  <path d="M456 342H560" stroke="#A8B2C0" stroke-width="5" stroke-linecap="round"/>

  <g stroke="#214F91" stroke-width="2">
    <rect x="330" y="228" width="28" height="28" rx="4" fill="#FFFFFF"/>
    <rect x="366" y="228" width="28" height="28" rx="4" fill="#FFFFFF"/>
    <rect x="402" y="228" width="28" height="28" rx="4" fill="#FFFFFF"/>
    <rect x="330" y="266" width="28" height="28" rx="4" fill="#FFFFFF"/>
    <rect x="366" y="266" width="28" height="28" rx="4" fill="#FFFFFF"/>
    <rect x="402" y="266" width="28" height="28" rx="4" fill="#FFFFFF"/>
  </g>

  <path d="M174 408C250 392 292 420 356 402C420 384 466 394 548 378" stroke="#214F91" stroke-width="3" stroke-linecap="round"/>
  <circle cx="174" cy="408" r="7" fill="#FFFFFF" stroke="#214F91" stroke-width="3"/>
  <circle cx="356" cy="402" r="7" fill="#FFFFFF" stroke="#214F91" stroke-width="3"/>
  <circle cx="548" cy="378" r="7" fill="#FFFFFF" stroke="#214F91" stroke-width="3"/>
  <text x="134" y="436" fill="#6B7482" font-family="ui-monospace, SFMono-Regular, Menlo, Consolas, monospace" font-size="13">mean latency</text>
  <text x="334" y="436" fill="#6B7482" font-family="ui-monospace, SFMono-Regular, Menlo, Consolas, monospace" font-size="13">P95</text>
  <text x="500" y="436" fill="#6B7482" font-family="ui-monospace, SFMono-Regular, Menlo, Consolas, monospace" font-size="13">throughput</text>
</svg>
